<?xml version="1.0" encoding="UTF-8"?><svg id="uuid-62d83fb9-055f-474a-86b5-9993bf51ab59" xmlns="http://www.w3.org/2000/svg" viewBox="0 0 512 512"><defs><style>.uuid-91758345-4f67-4d74-a88d-78ee75b8270b{fill:#3eba93;}.uuid-b7c9a627-0836-4c96-a979-2895cde7d64c{fill:#19969a;}.uuid-10275655-08cf-45ef-94f0-955b4e86d849{fill:#47b0e4;}</style></defs><path class="uuid-91758345-4f67-4d74-a88d-78ee75b8270b" d="m346.45,299.27c-17.34,0-31.44-14.11-31.44-31.44s14.1-31.44,31.44-31.44,31.44,14.1,31.44,31.44-14.1,31.44-31.44,31.44Zm0-51.39c-10.99,0-19.94,8.95-19.94,19.94s8.95,19.94,19.94,19.94,19.94-8.95,19.94-19.94-8.95-19.94-19.94-19.94Z"/><path class="uuid-91758345-4f67-4d74-a88d-78ee75b8270b" d="m167,262.43c-2.5-14.83-15.48-26.16-31-26.16-17.34,0-31.45,14.09-31.45,31.45,0,1.75.14,3.46.43,5.14l62.04-.02c.29-1.68.43-3.38.43-5.12s-.17-3.55-.47-5.29Zm-50.22,0c2.34-8.46,10.05-14.66,19.22-14.66s16.89,6.21,19.24,14.66h-38.46Z"/><path class="uuid-91758345-4f67-4d74-a88d-78ee75b8270b" d="m163.12,283.54c-1.15,1.99-2.51,3.83-4.05,5.51-5.76,6.28-14.02,10.22-23.19,10.22-13.05,0-24.33-8.04-29.04-19.44,0-.02-.02-.02-.02-.03-.08-.2-.28-.79-.34-.99h12.86c.12.28.4.79.54.99.05.06.09.12.14.19.19.25.37.47.57.7,3.66,4.33,9.2,7.07,15.28,7.07,4.61,0,8.86-1.57,12.24-4.22h15Z"/><path class="uuid-91758345-4f67-4d74-a88d-78ee75b8270b" d="m228.89,263.52v35.74h-13.29v-31.55c0-5.78-2.7-10.94-6.92-14.26-3.09-2.44-7-3.9-11.24-3.9h-5.99v49.71h-13.24v-62.99h23.44c7.28,0,13.9,2.86,18.79,7.51,5.21,4.96,8.46,11.97,8.45,19.73Z"/><path class="uuid-91758345-4f67-4d74-a88d-78ee75b8270b" d="m290.99,231.93v11.57c-5.46-4.47-12.36-7.13-19.91-7.13-17.32,0-31.45,14.1-31.45,31.45s14.13,31.45,31.45,31.45c7.56,0,14.46-2.66,19.91-7.13v7.13h13.28v-67.33h-13.28Zm-19.91,55.83c-10.98,0-19.95-8.94-19.95-19.95s8.97-19.95,19.95-19.95,19.55,8.58,19.91,19.26c.03.23.03.46.03.69s0,.46-.03.69c-.36,10.68-9.14,19.26-19.91,19.26Z"/><rect class="uuid-10275655-08cf-45ef-94f0-955b4e86d849" x="291" y="212.79" width="13.27" height="13.18"/><path class="uuid-91758345-4f67-4d74-a88d-78ee75b8270b" d="m491.38,236.44v7.05c-5.46-4.47-12.36-7.13-19.91-7.13-17.32,0-31.45,14.1-31.45,31.45s14.13,31.45,31.45,31.45c7.56,0,14.46-2.66,19.91-7.13v7.13h13.28v-62.82h-13.28Zm-19.91,51.32c-10.98,0-19.95-8.94-19.95-19.95s8.97-19.95,19.95-19.95,19.55,8.58,19.91,19.26c.03.23.03.46.03.69s0,.46-.03.69c-.36,10.68-9.14,19.26-19.91,19.26Z"/><rect class="uuid-10275655-08cf-45ef-94f0-955b4e86d849" x="388.63" y="286.08" width="13.27" height="13.18"/><path class="uuid-91758345-4f67-4d74-a88d-78ee75b8270b" d="m388.63,263.64v16.46h13.29s0-12.27,0-12.27c0-4.88,1.93-9.31,5.06-12.58,3.3-3.44,7.95-5.58,13.1-5.58h9.2s0-13.28,0-13.28h-13.4c-8.19,0-15.54,3.61-20.53,9.34-4.18,4.79-6.71,11.05-6.71,17.91Z"/><rect class="uuid-10275655-08cf-45ef-94f0-955b4e86d849" x="54.43" y="259.91" width="13.18" height="13.18"/><path class="uuid-91758345-4f67-4d74-a88d-78ee75b8270b" d="m93.81,236.33v13.2h-35.77c-4.15,0-7.87,1.81-10.43,4.68-2.2,2.47-3.53,5.72-3.53,9.28v35.77h-13.2v-41.22c0-5.59,2.11-10.68,5.57-14.53,3.98-4.42,9.74-7.19,16.15-7.19h41.22Z"/><path class="uuid-b7c9a627-0836-4c96-a979-2895cde7d64c" d="m70.28,212.73v13.2h-29.57c-5.82,0-11.06,2.46-14.74,6.41-3.36,3.6-5.42,8.44-5.42,13.76v29.57H7.34v-33.46c0-8.06,3.24-15.37,8.49-20.69,5.35-5.42,12.78-8.78,20.99-8.78h33.46Z"/></svg>