<?xml version="1.0" encoding="UTF-8"?><svg id="uuid-f0041b74-1870-4515-8a37-353b1c582e02" xmlns="http://www.w3.org/2000/svg" viewBox="0 0 192 192"><defs><style>.uuid-cec0942e-8bdd-40d6-916b-55b71eaddd55{fill:#def1f2;}.uuid-47d6b8ea-420c-44ea-a6ca-3335cdead9e0{fill:#3eba93;}.uuid-2b51e6b4-032a-4a7a-9ba8-e000dac7a68b{fill:#19969a;}.uuid-8a897dcc-8e1d-461c-bd26-0bbfdd8948ad{fill:#47b0e4;}</style></defs><rect class="uuid-cec0942e-8bdd-40d6-916b-55b71eaddd55" width="192" height="192"/><rect class="uuid-8a897dcc-8e1d-461c-bd26-0bbfdd8948ad" x="101.74" y="101.83" width="19.64" height="19.64"/><path class="uuid-47d6b8ea-420c-44ea-a6ca-3335cdead9e0" d="m160.43,66.68v19.67h-53.31c-6.18,0-11.73,2.69-15.54,6.97-3.27,3.68-5.26,8.52-5.26,13.83v53.31h-19.67v-61.43c0-8.32,3.14-15.91,8.3-21.65,5.92-6.58,14.51-10.72,24.06-10.72h61.43Z"/><path class="uuid-2b51e6b4-032a-4a7a-9ba8-e000dac7a68b" d="m125.36,31.52v19.67h-44.07c-8.67,0-16.49,3.67-21.97,9.55-5.01,5.37-8.08,12.58-8.08,20.51v44.07h-19.67v-49.87c0-12.02,4.83-22.91,12.65-30.84s19.04-13.09,31.28-13.09h49.87Z"/></svg>