<?xml version="1.0" encoding="UTF-8"?><svg id="uuid-64b257dd-306d-44c9-8ffc-d3766d2c84c1" xmlns="http://www.w3.org/2000/svg" viewBox="0 0 320 132"><defs><style>.uuid-afe378ab-736d-421b-a27f-e22a65b78f7e{fill:#fff;}.uuid-1888eb0c-f750-42ee-93e1-dacde3a71c36{fill:#afd6d5;}.uuid-25a72ac7-7871-4d26-99f6-cfae23e84ded{fill:#c2e8fb;}</style></defs><path class="uuid-afe378ab-736d-421b-a27f-e22a65b78f7e" d="m215.73,92.66c-10.68,0-19.37-8.69-19.37-19.37s8.69-19.37,19.37-19.37,19.37,8.69,19.37,19.37-8.69,19.37-19.37,19.37Zm0-31.66c-6.77,0-12.29,5.51-12.29,12.29s5.51,12.29,12.29,12.29,12.29-5.51,12.29-12.29-5.51-12.29-12.29-12.29Z"/><path class="uuid-afe378ab-736d-421b-a27f-e22a65b78f7e" d="m105.17,69.96c-1.54-9.14-9.54-16.11-19.1-16.11-10.69,0-19.37,8.68-19.37,19.37,0,1.08.09,2.13.27,3.16h38.22c.18-1.04.27-2.09.27-3.16s-.11-2.19-.29-3.26Zm-30.94,0c1.44-5.21,6.19-9.03,11.84-9.03s10.41,3.82,11.85,9.03h-23.69Z"/><path class="uuid-afe378ab-736d-421b-a27f-e22a65b78f7e" d="m102.78,82.96c-.71,1.22-1.55,2.36-2.49,3.39-3.55,3.87-8.64,6.3-14.29,6.3-8.04,0-14.99-4.95-17.89-11.98,0,0,0,0,0-.02-.05-.12-.17-.48-.21-.61h7.92c.07.17.25.48.33.61.03.04.06.08.09.11.11.15.23.29.35.43,2.26,2.67,5.67,4.36,9.41,4.36,2.84,0,5.46-.97,7.54-2.6h9.24Z"/><path class="uuid-afe378ab-736d-421b-a27f-e22a65b78f7e" d="m143.3,70.64v22.02h-8.19v-19.44c0-3.56-1.67-6.74-4.26-8.79-1.91-1.5-4.31-2.4-6.93-2.4h-3.69v30.63h-8.16v-38.81h14.44c4.49,0,8.56,1.76,11.58,4.63,3.21,3.06,5.21,7.37,5.21,12.16Z"/><path class="uuid-afe378ab-736d-421b-a27f-e22a65b78f7e" d="m181.56,51.17v7.13c-3.36-2.75-7.61-4.39-12.27-4.39-10.67,0-19.38,8.69-19.38,19.38s8.71,19.38,19.38,19.38c4.66,0,8.91-1.64,12.27-4.39v4.39h8.18v-41.48h-8.18Zm-12.27,34.4c-6.76,0-12.29-5.51-12.29-12.29s5.53-12.29,12.29-12.29,12.05,5.28,12.27,11.86c.02.14.02.28.02.43s0,.28-.02.43c-.22,6.58-5.63,11.86-12.27,11.86Z"/><rect class="uuid-25a72ac7-7871-4d26-99f6-cfae23e84ded" x="181.56" y="39.38" width="8.18" height="8.12"/><path class="uuid-afe378ab-736d-421b-a27f-e22a65b78f7e" d="m305.02,53.95v4.35c-3.36-2.75-7.61-4.39-12.27-4.39-10.67,0-19.38,8.69-19.38,19.38s8.71,19.38,19.38,19.38c4.66,0,8.91-1.64,12.27-4.39v4.39h8.18v-38.7h-8.18Zm-12.27,31.62c-6.76,0-12.29-5.51-12.29-12.29s5.53-12.29,12.29-12.29,12.05,5.28,12.27,11.86c.02.14.02.28.02.43s0,.28-.02.43c-.22,6.58-5.63,11.86-12.27,11.86Z"/><rect class="uuid-25a72ac7-7871-4d26-99f6-cfae23e84ded" x="241.71" y="84.53" width="8.18" height="8.12"/><path class="uuid-afe378ab-736d-421b-a27f-e22a65b78f7e" d="m241.71,70.7v10.14h8.19s0-7.56,0-7.56c0-3.01,1.19-5.74,3.12-7.75,2.04-2.12,4.9-3.44,8.07-3.44h5.67s0-8.18,0-8.18h-8.26c-5.05,0-9.57,2.23-12.65,5.75-2.57,2.95-4.13,6.81-4.13,11.03Z"/><rect class="uuid-25a72ac7-7871-4d26-99f6-cfae23e84ded" x="35.82" y="68.41" width="8.12" height="8.12"/><path class="uuid-afe378ab-736d-421b-a27f-e22a65b78f7e" d="m60.08,53.88v8.13h-22.04c-2.56,0-4.85,1.11-6.43,2.88-1.35,1.52-2.18,3.52-2.18,5.72v22.04h-8.13v-25.4c0-3.44,1.3-6.58,3.43-8.95,2.45-2.72,6-4.43,9.95-4.43h25.4Z"/><path class="uuid-1888eb0c-f750-42ee-93e1-dacde3a71c36" d="m45.58,39.34v8.13h-18.22c-3.59,0-6.82,1.52-9.08,3.95-2.07,2.22-3.34,5.2-3.34,8.48v18.22H6.81v-20.62c0-4.97,2-9.47,5.23-12.75,3.29-3.34,7.87-5.41,12.93-5.41h20.62Z"/></svg>